<?xml version="1.0" encoding="UTF-8" standalone="no"?><!-- Generator: Gravit.io --><svg xmlns="http://www.w3.org/2000/svg" xmlns:xlink="http://www.w3.org/1999/xlink" style="isolation:isolate" viewBox="0 0 85 115" width="85pt" height="115pt"><defs><clipPath id="_clipPath_mLr8gLdvu6ceBxQ2yD3cma1GfI5W5b8c"><rect width="85" height="115"/></clipPath></defs><g clip-path="url(#_clipPath_mLr8gLdvu6ceBxQ2yD3cma1GfI5W5b8c)"><g><linearGradient id="_lgradient_0" x1="1.3971425669490443" y1="-0.6902199062942458" x2="1.3322676295501878e-15" y2="1.0000000000000002" gradientTransform="matrix(0.22,-30.021,33.734,0.247,45.976,109.115)" gradientUnits="userSpaceOnUse"><stop offset="0%" stop-opacity="1" style="stop-color:rgb(74,134,232)"/><stop offset="100%" stop-opacity="1" style="stop-color:rgb(220,45,45)"/></linearGradient><path d=" M 46.123 89.093 L 72.277 109.286 C 78.411 109.645 80.786 106.642 79.343 100.337 L 50.497 79.125 L 46.123 89.093 Z " fill="url(#_lgradient_0)"/><linearGradient id="_lgradient_1" x1="-0.04495715103495418" y1="0.2082169285075285" x2="1.0419348215536126" y2="0.7721674028207088"><stop offset="0%" stop-opacity="1" style="stop-color:rgb(74,134,232)"/><stop offset="51.73913043478261%" stop-opacity="1" style="stop-color:rgb(220,45,45)"/></linearGradient><path d=" M 5.248 70.006 C 5.248 56.76 16.45 46.006 30.248 46.006 C 44.046 46.006 55.248 56.76 55.248 70.006 C 55.248 83.252 44.046 94.006 30.248 94.006 C 16.45 94.006 5.248 83.252 5.248 70.006 Z " fill="none" vector-effect="non-scaling-stroke" stroke-width="10" stroke="url(#_lgradient_1)" stroke-linejoin="miter" stroke-linecap="square" stroke-miterlimit="3"/><linearGradient id="_lgradient_2" x1="0" y1="0.5" x2="1" y2="0.5"><stop offset="0%" stop-opacity="1" style="stop-color:rgb(0,0,0)"/><stop offset="100%" stop-opacity="1" style="stop-color:rgb(49,49,49)"/></linearGradient><path d=" M 26.248 46.006 C 14.658 46.006 5.248 36.972 5.248 25.846 C 5.248 14.719 14.658 5.686 26.248 5.686 C 37.838 5.686 47.248 14.719 47.248 25.846" fill="none" vector-effect="non-scaling-stroke" stroke-width="10" stroke="url(#_lgradient_2)" stroke-linejoin="miter" stroke-linecap="square" stroke-miterlimit="3"/><linearGradient id="_lgradient_3" x1="0" y1="0.5" x2="1" y2="0.5"><stop offset="0%" stop-opacity="1" style="stop-color:rgb(0,0,0)"/><stop offset="100%" stop-opacity="1" style="stop-color:rgb(49,49,49)"/></linearGradient><path d=" M 22.193 47.398 C 35.191 42.767 49.352 49.138 53.798 61.615 C 58.243 74.093 51.3 87.983 38.303 92.614 C 25.305 97.244 11.143 90.874 6.698 78.396" fill="none" vector-effect="non-scaling-stroke" stroke-width="10" stroke="url(#_lgradient_3)" stroke-linejoin="miter" stroke-linecap="square" stroke-miterlimit="3"/></g></g></svg>